<svg width="31" height="31" viewBox="0 0 31 31" fill="none" xmlns="http://www.w3.org/2000/svg">
<path fill-rule="evenodd" clip-rule="evenodd" d="M15.5579 0.186523C23.841 0.186523 30.558 6.90366 30.558 15.1865C30.558 23.4695 23.841 30.1865 15.5579 30.1865C7.27507 30.1865 0.558014 23.4695 0.558014 15.1865C0.558014 6.90366 7.27507 0.186523 15.5579 0.186523Z" fill="#161413"/>
<path fill-rule="evenodd" clip-rule="evenodd" d="M15.5579 0.71759C23.5476 0.71759 30.027 7.19699 30.027 15.1865C30.027 23.1764 23.5476 29.6557 15.5579 29.6557C7.5684 29.6557 1.08897 23.1764 1.08897 15.1865C1.08897 7.19699 7.5684 0.71759 15.5579 0.71759Z" fill="#E20010"/>
<path fill-rule="evenodd" clip-rule="evenodd" d="M15.6297 3.6077C24.4731 3.67972 27.2498 7.76033 23.0251 15.1829C21.0723 18.6134 20.3153 20.7911 22.2441 22.3484C23.4407 23.3145 24.9616 23.1372 26.8835 22.1648C24.7897 25.6557 21.4395 26.5999 18.1835 24.094C15.4808 22.0139 16.8173 19.0503 17.8345 16.5148C19.9222 11.3112 21.8285 5.86602 15.6297 5.67459C9.43076 5.86602 11.3372 11.3112 13.4248 16.5148C14.4422 19.0503 15.7784 22.0139 13.0757 24.094C9.81987 26.5999 6.46976 25.6557 4.37605 22.1648C6.29762 23.1372 7.81889 23.3145 9.01532 22.3484C10.9442 20.7911 10.187 18.6134 8.23448 15.1829C4.00958 7.76033 6.78635 3.67972 15.6297 3.6077Z" fill="#161413"/>
<path fill-rule="evenodd" clip-rule="evenodd" d="M21.8158 16.5063L21.6726 16.7949L21.5378 17.0776L21.4115 17.355L21.2942 17.6266L21.1861 17.8934L21.0878 18.155L20.999 18.4121L20.9207 18.6644L20.8529 18.9127L20.7961 19.1571L20.7508 19.3978L20.7178 19.6351L20.697 19.8689L20.6895 20.0995L20.6956 20.327L20.7161 20.5509L20.7514 20.7714L20.8024 20.9879L20.8691 21.2L20.9517 21.4069L21.0503 21.6082L21.1649 21.8036L21.2956 21.9929L21.4415 22.1758L21.603 22.352L21.7795 22.5219L21.9707 22.6853L22.1004 22.7852L22.2319 22.8773L22.3662 22.9623L22.5033 23.0402L22.6432 23.1107L22.7852 23.174L22.9299 23.23L23.077 23.279L23.226 23.3205L23.3772 23.3549L23.5299 23.382L23.6843 23.4025L23.8405 23.416L23.9978 23.4227H24.1568L24.317 23.4166L24.4789 23.404L24.6418 23.3854L24.806 23.3606L24.9716 23.3303L25.1387 23.294L25.3071 23.2524L25.477 23.2051L25.6375 23.156L25.4955 23.3176L25.2762 23.5462L25.0522 23.7587L24.8238 23.9555L24.5913 24.1365L24.3549 24.3013L24.1152 24.4503L23.8719 24.5835L23.6255 24.7005L23.3761 24.8017L23.1238 24.8867L22.8687 24.9559L22.611 25.009L22.3506 25.046L22.0873 25.0668L21.8215 25.0711L21.5529 25.059L21.2816 25.0301L21.0077 24.9839L20.7312 24.9206L20.4526 24.8395L20.1715 24.7403L19.8883 24.6229L19.6031 24.4869L19.3161 24.3318L19.028 24.1576L18.7385 23.9636L18.4495 23.7511L18.2268 23.569L18.0281 23.3851L17.851 23.1985L17.6946 23.0099L17.5574 22.8186L17.4382 22.625L17.3361 22.429L17.25 22.2302L17.179 22.0283L17.1222 21.8229L17.0788 21.6142L17.0485 21.4015L17.0307 21.1855L17.0246 20.9654L17.0299 20.7419L17.046 20.5153L17.0725 20.2853L17.1088 20.0527L17.1539 19.8172L17.2071 19.58L17.2685 19.3407L17.3364 19.0999L17.4108 18.858L17.4908 18.6153L17.5754 18.3718L17.6642 18.1282L17.7562 17.8848L17.8504 17.6415L17.9467 17.3988L18.0437 17.1567L18.1408 16.9159L18.2372 16.6763L18.4328 16.1865L18.6262 15.6954L18.8158 15.2041L19.0002 14.7135L19.1783 14.2249L19.348 13.7387L19.5085 13.256L19.658 12.7778L19.7948 12.3049L19.9178 11.8381L20.0254 11.3783L20.1158 10.926L20.1877 10.482L20.2391 10.047L20.2684 9.62175L20.2734 9.20679L20.2528 8.80274L20.2033 8.41048L20.1231 8.03108L20.0095 7.66633L19.86 7.31802L19.6728 6.98882L19.4464 6.68189L19.1801 6.40037L18.8747 6.14708L18.5303 5.92354L18.1476 5.73108L17.7265 5.56985L17.267 5.44029L16.7674 5.34227L16.2268 5.27562L15.6297 5.24006L15.0326 5.27562L14.492 5.34227L13.9928 5.44029L13.5331 5.56985L13.1121 5.73108L12.7295 5.92354L12.3852 6.14693L12.0794 6.40037L11.8132 6.68189L11.5869 6.98882L11.3996 7.31802L11.2501 7.66633L11.1364 8.03124L11.0562 8.41048L11.007 8.80274L10.986 9.20664L10.9912 9.62175L11.0206 10.047L11.072 10.482L11.1436 10.926L11.2342 11.3783L11.3416 11.8381L11.4646 12.3049L11.6014 12.7778L11.7509 13.256L11.9114 13.7387L12.0813 14.2249L12.2592 14.7137L12.4438 15.2041L12.6335 15.6954L12.8268 16.1865L13.0223 16.6763L13.1187 16.916L13.2159 17.1569L13.3129 17.3988L13.409 17.6415L13.5034 17.8848L13.5955 18.1282L13.6841 18.3718L13.7687 18.6153L13.8488 18.8581L13.923 19.0999L13.9912 19.3407L14.0524 19.58L14.106 19.8172L14.151 20.0525L14.1871 20.2853L14.2134 20.5153L14.2296 20.742L14.235 20.9654L14.2289 21.1853L14.2111 21.4017L14.1808 21.6142L14.1377 21.8229L14.0807 22.0283L14.0096 22.2302L13.9234 22.429L13.8214 22.625L13.7023 22.8186L13.5649 23.0097L13.4085 23.1985L13.2315 23.3851L13.0327 23.569L12.8098 23.7511L12.5211 23.9636L12.2317 24.1576L11.9433 24.3318L11.6565 24.4869L11.3714 24.6229L11.0881 24.7403L10.807 24.8395L10.5282 24.9206L10.2518 24.9839L9.97794 25.0301L9.70679 25.059L9.43825 25.0711L9.17231 25.0668L8.90913 25.046L8.6487 25.009L8.39071 24.9559L8.13579 24.8867L7.88362 24.8017L7.6342 24.7005L7.3877 24.5835L7.14456 24.4503L6.90463 24.3013L6.66822 24.1364L6.43579 23.9555L6.20749 23.7587L5.98348 23.5462L5.76405 23.3176L5.62206 23.156L5.78257 23.2051L5.95241 23.2524L6.12088 23.294L6.28782 23.3303L6.45354 23.3606L6.61772 23.3854L6.78084 23.404L6.94242 23.4166L7.10278 23.4227H7.26177L7.41907 23.416L7.57529 23.4025L7.72999 23.382L7.8827 23.3549L8.03357 23.3205L8.18261 23.279L8.32966 23.23L8.47426 23.174L8.61671 23.1107L8.75626 23.0402L8.89337 22.9623L9.02771 22.8773L9.15931 22.7852L9.28876 22.6853L9.47987 22.5219L9.65661 22.352L9.81804 22.1758L9.96401 21.9928L10.0945 21.8036L10.2093 21.6082L10.3078 21.4067L10.3905 21.2L10.4572 20.9879L10.5081 20.7714L10.5433 20.5509L10.5638 20.327L10.5701 20.0995L10.5625 19.8688L10.542 19.635L10.5086 19.3978L10.4635 19.1573L10.4067 18.9127L10.3389 18.6644L10.2604 18.4119L10.172 18.155L10.0733 17.8934L9.96524 17.6266L9.84803 17.355L9.72179 17.0776L9.58683 16.795L9.44376 16.5063L9.29243 16.2114L9.13329 15.9104L8.96666 15.603L8.79253 15.2891L8.6135 14.9721L8.24305 14.2953L7.9156 13.6433L7.62885 13.0128L7.38234 12.404L7.17638 11.8175L7.0099 11.2535L6.88275 10.7124L6.794 10.1944L6.74366 9.70007L6.7305 9.22906L6.75391 8.78152L6.81297 8.35714L6.90708 7.95533L7.03561 7.57504L7.19857 7.21536L7.39581 6.87541L7.62824 6.55414L7.89632 6.2508L8.20097 5.96523L8.54296 5.69731L8.92305 5.44761L9.34139 5.21645L9.7986 5.00426L10.2944 4.81194L10.829 4.63995L11.4019 4.48872L12.0132 4.35887L12.6624 4.25054L13.3493 4.16447L14.0737 4.10066L14.8351 4.05956L15.6297 4.04149L16.4243 4.05956L17.1859 4.10066L17.9102 4.16447L18.5971 4.25054L19.2464 4.35887L19.8577 4.48872L20.4307 4.63995L20.9652 4.81194L21.4611 5.00426L21.9182 5.21645L22.3367 5.44761L22.7166 5.69731L23.0586 5.96523L23.3634 6.2508L23.6315 6.55414L23.8638 6.87541L24.0611 7.2155L24.2241 7.57504L24.3526 7.95533L24.4467 8.35714L24.5057 8.78152L24.5291 9.22906L24.5159 9.70007L24.4654 10.1944L24.377 10.7124L24.2498 11.2535L24.0833 11.8175L23.8771 12.404L23.6309 13.0128L23.3441 13.6433L23.0165 14.2953L22.6459 14.9721L22.4669 15.2891L22.2931 15.603L22.1263 15.9104L21.9671 16.2114L21.8158 16.5063Z" fill="white"/>
</svg>
