<svg width="842" height="525" viewBox="0 0 842 525" fill="none" xmlns="http://www.w3.org/2000/svg">
<path d="M474.341 8.52798C474.961 6.72498 475.625 4.76198 474.933 3.00198C474.197 1.09698 472.48 0.361985 470.46 0.346985C468.036 0.346985 465.151 1.35699 462.972 2.53999C409.545 31.454 345.124 26.274 284.368 25.812C279.52 25.769 272.97 27.428 273.244 32.261C273.403 35.276 276.404 37.239 279.044 38.681C286.186 42.562 293.328 46.458 300.484 50.339C295.593 47.526 290.269 55.461 292.981 60.41C295.708 65.373 301.998 66.903 307.597 67.566C313.224 68.259 319.428 68.85 323.266 72.991C322.848 78.95 327.508 84.476 333.135 86.106C280.43 84.505 228.042 72.486 179.91 50.974C178.424 50.31 176.75 49.632 175.235 50.224C172.205 51.393 172.926 55.865 174.312 58.809C178.727 68.115 184.469 76.801 191.308 84.505C187.499 81.518 180.011 86.02 179.996 91.56C179.982 97.75 185.089 102.597 189.764 106.652C194.453 110.706 199.517 115.626 199.387 121.816C195.448 121.138 191.322 120.489 187.556 121.802C183.79 123.144 180.674 127.184 181.828 130.993C182.42 132.97 183.992 134.47 185.507 135.898C188.234 138.437 190.961 140.991 193.688 143.53H133.884V134.657C133.884 133.459 133.74 132.103 133.437 130.877C133.74 129.189 132.932 127.212 131.72 126.246C130.263 125.077 128.445 124.991 126.728 124.933C121.909 124.789 117.09 124.63 112.271 124.486C108.563 124.371 101.969 123.736 101.176 129.738C101.075 130.532 101.032 131.354 101.032 132.119V143.532H100.873C90.442 140.56 80.227 136.765 70.964 131.182C64.847 127.503 33.899 102.831 30.017 118.572C27.867 127.344 55.353 153.848 63.822 154.988C58.354 154.252 52.871 153.516 47.389 152.795C45.73 152.579 43.854 152.405 42.512 153.401C39.54 155.637 42.137 160.283 44.82 162.837C54.285 171.768 64.543 179.833 75.436 186.917C75.249 188.057 75.133 189.254 75.047 190.452C73.013 190.957 71.065 191.678 69.391 192.934C66.491 195.113 64.846 199.412 66.794 202.5C67.818 204.101 69.593 205.054 71.296 205.948C78.149 209.526 85.003 213.104 91.87 216.682C87.83 216.754 83.747 216.841 79.808 216.956C74.542 217.115 75.436 233.49 75.451 235.958C75.494 244.413 86.69 241.57 92.014 241.57H100.916C100.671 245.682 100.425 251.121 102.2 253.04C104.162 252.852 106.139 252.694 108.101 252.549C114.392 252.087 120.639 251.683 126.699 251.135C129.036 250.919 131.374 250.717 133.711 250.5C133.826 249.75 133.884 249 133.884 248.307V246.114C137.073 247.066 140.261 248.033 143.45 249C143.349 249.245 143.262 249.476 143.205 249.721C157.388 248.596 171.585 247.701 185.782 247.009C194.843 246.562 203.918 246.201 212.979 245.912C236.641 245.147 260.303 244.873 283.965 244.945C298.292 244.988 312.633 245.161 326.96 245.436C327.234 244.152 327.537 242.853 327.84 241.569C332.875 241.555 337.925 241.555 342.975 241.555C346.308 245.263 351.069 247.124 354.691 243.95C355.268 244.614 355.759 245.335 356.148 246.114C357.143 246.128 358.125 246.157 359.12 246.186C364.617 246.345 370.128 246.518 375.64 246.691C377.718 246.749 379.795 246.821 381.873 246.893C392.377 247.225 402.866 247.614 413.355 248.004C413.615 248.018 413.874 248.018 414.134 248.033C414.264 247.542 414.307 247.009 414.278 246.475C414.422 245.667 414.48 244.83 414.48 244.08V241.555H434.145C435.573 241.555 437.29 241.165 438.517 240.43C439.065 240.343 439.642 239.968 440.263 239.189C441.186 238.049 441.259 236.448 441.302 234.976C441.417 230.431 441.518 225.886 441.634 221.327C441.648 221.183 441.648 221.038 441.648 220.88C441.98 220.433 442.153 219.884 442.066 219.235C441.936 218.369 441.388 217.778 440.638 217.374C440.494 217.244 440.335 217.114 440.162 216.999C439.686 216.739 439.152 216.682 438.633 216.768C438.056 216.667 437.464 216.638 436.916 216.638H414.481V205.009H433.67C435.098 205.009 436.815 204.605 438.042 203.884C438.576 203.783 439.167 203.408 439.773 202.643C440.682 201.503 440.783 199.945 440.812 198.488C444.996 198.878 449.656 196.05 449.094 191.923C452.384 197.03 455.659 202.138 458.948 207.26C459.467 208.068 460.059 208.905 460.708 209.669C458.977 183.54 457.404 157.397 455.99 131.239C455.601 124.112 455.326 116.609 456.481 109.583C456.796 75.228 462.769 40.904 474.341 8.52798ZM414.493 180.091V176.138C418.995 176.729 423.539 175.157 425.026 170.901C427.306 173.455 428.431 176.716 429.297 180.092H414.493V180.091Z" fill="#45A146"/>
<path d="M839.916 290.162C838.084 270.569 834.953 250.759 826.455 233.013C817.957 215.252 803.399 199.641 784.643 193.668C761.544 186.324 735.285 194.216 712.864 185.026C678.179 170.814 670.301 125.164 644.043 98.429C626.412 80.466 600.918 71.954 575.813 70.121C550.723 68.303 525.618 72.53 500.802 76.729C486.72 79.124 471.239 82.341 462.712 93.783C459.235 98.443 457.388 103.854 456.479 109.582C455.325 116.608 455.599 124.111 455.988 131.238C457.402 157.396 458.975 183.539 460.706 209.668C461.601 223.115 462.524 236.562 463.505 249.994C450.058 249.446 436.611 248.897 423.164 248.378C420.149 248.263 417.148 248.147 414.132 248.032C413.872 248.018 413.613 248.018 413.353 248.003C402.864 247.613 392.375 247.224 381.871 246.892C379.793 246.82 377.716 246.748 375.638 246.69C370.127 246.517 364.615 246.344 359.118 246.185C358.122 246.156 357.141 246.127 356.146 246.113C355.482 246.084 354.804 246.07 354.14 246.055C349.48 245.94 344.82 245.81 340.145 245.709C335.744 245.608 331.358 245.521 326.958 245.435C312.631 245.161 298.29 244.988 283.963 244.944C260.301 244.872 236.639 245.146 212.977 245.911C203.916 246.2 194.841 246.56 185.78 247.008C171.583 247.701 157.386 248.595 143.203 249.72C140.029 249.965 136.869 250.225 133.709 250.499C131.372 250.715 129.034 250.917 126.697 251.134C120.637 251.682 114.39 252.086 108.099 252.548C106.137 252.692 104.16 252.851 102.198 253.039C93.007 253.833 83.846 254.944 75.218 257.137C61.771 260.556 59.982 276.081 57.399 287.796C55.365 297.03 53.98 306.408 53.229 315.844C53.041 318.383 51.122 342.622 52.926 343.055C43.144 343.935 21.877 345.407 9.51203 346.244C4.20203 346.59 0.0900269 351.005 0.0900269 356.329V385.647C0.0900269 391.303 4.72103 395.848 10.377 395.747C19.972 395.574 34.587 395.256 46.707 394.766C46.808 406.597 46.909 418.413 47.024 430.23C47.038 433.346 47.226 436.824 49.52 438.93C51.511 440.762 54.454 440.95 57.138 441.051C75.505 441.686 93.857 442.321 112.224 442.956C112.931 442.985 113.667 442.999 114.388 443.014C117.577 443.028 120.794 442.711 123.305 440.864C126.537 438.498 127.691 434.299 128.946 430.505C139.06 399.672 169.748 376.804 202.182 375.938C234.616 375.058 266.502 396.267 278.246 426.508C280.021 431.067 281.665 436.175 285.864 438.714C288.879 440.532 292.602 440.59 296.122 440.604C376.616 440.806 457.109 441.023 537.603 441.224C540.979 441.238 544.528 441.21 547.486 439.594C552.348 436.954 554.181 431.067 556.128 425.887C567.339 396.165 597.911 374.855 629.682 374.624C661.452 374.393 692.343 395.256 703.986 424.819C706.266 430.605 708.285 437.198 713.653 440.315C717.404 442.494 721.978 442.45 726.306 442.349C752.882 441.757 779.459 441.166 806.035 440.574C811.936 440.444 818.155 440.228 823.233 437.198C831.572 432.249 834.184 421.587 835.742 412.021C842.283 371.795 843.697 330.733 839.916 290.162Z" fill="black"/>
<path d="M662.337 244.959C655.801 245.493 649.179 244.858 642.628 244.844C620.957 244.786 599.286 244.729 577.616 244.685C566.896 244.656 556.176 244.627 545.47 244.598C537.116 244.584 524.867 246.618 517.047 244.281C508.405 241.698 511.449 226.679 511.276 219.826C511.002 209.092 510.843 198.343 510.786 187.608C510.772 181.75 509.083 120.576 511.955 120.013C517.625 118.917 523.339 118.412 529.052 118.44C555.109 118.541 581.022 129.651 601.596 146.127C615.418 157.208 627.22 170.582 637.594 184.895C646.568 197.303 659.481 212.885 662.814 228.107C663.159 229.708 664.328 244.8 662.337 244.959Z" fill="#CCCCCC"/>
<path d="M220.738 396.516C213.64 394.28 205.851 393.121 198.024 393.175C183.598 393.275 169.038 397.496 158.415 406.695C134.583 427.332 129.055 462.179 144.363 489.579C153.277 505.535 168.771 517.682 186.393 522.532C197.453 525.576 209.441 525.781 220.29 522.054C232.43 517.884 242.527 509.061 250.382 498.909C259.077 487.672 265.458 474.31 266.679 460.154C269.224 430.624 248.005 405.105 220.738 396.516ZM241.035 459.703C240.294 468.303 236.417 476.42 231.135 483.247C226.363 489.414 220.229 494.774 212.854 497.308C206.263 499.572 198.98 499.447 192.261 497.598C181.555 494.652 172.143 487.272 166.727 477.579C157.427 460.933 160.786 439.763 175.264 427.226C181.717 421.638 190.563 419.073 199.327 419.013C204.082 418.98 208.814 419.684 213.126 421.042C229.691 426.26 242.581 441.763 241.035 459.703ZM651.173 396.516C644.075 394.28 636.286 393.121 628.459 393.175C614.033 393.275 599.473 397.496 588.85 406.695C565.018 427.332 559.49 462.179 574.798 489.579C583.712 505.535 599.206 517.682 616.828 522.532C627.888 525.576 639.876 525.781 650.725 522.054C662.865 517.884 672.962 509.061 680.817 498.909C689.512 487.672 695.893 474.31 697.114 460.154C699.659 430.624 678.44 405.105 651.173 396.516ZM671.469 459.703C670.728 468.303 666.851 476.42 661.569 483.247C656.797 489.414 650.663 494.774 643.288 497.308C636.697 499.572 629.414 499.447 622.695 497.598C611.989 494.652 602.577 487.272 597.161 477.579C587.861 460.933 591.22 439.763 605.698 427.226C612.151 421.638 620.997 419.073 629.761 419.013C634.516 418.98 639.248 419.684 643.56 421.042C660.125 426.26 673.016 441.763 671.469 459.703Z" fill="black"/>
<path d="M198.5 435.173C185.42 436.197 173.375 447.159 176.94 461.978C179.361 472.041 189.088 479.526 199.396 480.464C203.779 480.863 208.299 480.2 212.245 478.251C219.412 474.713 224.154 466.876 224.255 458.884C224.356 450.892 219.946 443.058 213.217 438.744C208.71 435.855 203.528 434.78 198.5 435.173ZM628.934 435.173C615.854 436.197 603.809 447.159 607.374 461.978C609.795 472.041 619.522 479.526 629.83 480.464C634.213 480.863 638.733 480.2 642.679 478.251C649.846 474.713 654.588 466.876 654.689 458.884C654.79 450.892 650.38 443.058 643.651 438.744C639.144 435.855 633.962 434.78 628.934 435.173Z" fill="black"/>
<path d="M442.065 219.234C441.935 218.368 441.387 217.777 440.637 217.373C440.493 217.243 440.334 217.113 440.161 216.998C439.685 216.738 439.151 216.681 438.632 216.767C438.055 216.666 437.463 216.637 436.915 216.637H414.48V205.008H433.669C435.097 205.008 436.814 204.604 438.041 203.883C438.575 203.782 439.166 203.407 439.772 202.642C440.695 201.488 440.782 199.901 440.811 198.429C440.926 193.884 441.042 189.325 441.157 184.78V184.333C441.503 183.886 441.676 183.337 441.575 182.688C441.46 181.822 440.911 181.231 440.161 180.827C440.017 180.683 439.858 180.553 439.67 180.452C439.208 180.178 438.674 180.12 438.155 180.207C437.578 180.12 436.986 180.092 436.438 180.092H414.493V168.463H433.192C434.606 168.463 436.323 168.059 437.564 167.323C438.098 167.236 438.675 166.861 439.295 166.097C440.218 164.943 440.291 163.356 440.334 161.884C440.449 157.325 440.565 152.78 440.68 148.221V147.788C441.026 147.326 441.185 146.792 441.098 146.143C440.983 145.263 440.42 144.671 439.684 144.282C439.54 144.138 439.381 144.008 439.194 143.907C438.718 143.633 438.184 143.575 437.665 143.662C437.088 143.575 436.496 143.532 435.962 143.532H414.493V134.024C414.493 132.855 414.349 131.542 414.046 130.359C414.349 128.714 413.527 126.795 412.329 125.872C410.857 124.747 409.054 124.66 407.337 124.602C402.518 124.458 397.699 124.313 392.88 124.169C389.172 124.054 382.578 123.433 381.785 129.262C381.684 130.027 381.641 130.82 381.641 131.556V143.531H133.884V134.658C133.884 133.46 133.74 132.104 133.437 130.878C133.74 129.19 132.932 127.213 131.72 126.247C130.263 125.078 128.445 124.992 126.728 124.934C121.909 124.79 117.09 124.631 112.271 124.487C108.563 124.372 101.969 123.737 101.176 129.739C101.075 130.533 101.032 131.355 101.032 132.12V143.533H97.93C91.697 143.533 85.089 143.677 78.856 143.865C73.575 144.009 74.47 160.399 74.484 162.852C74.542 171.321 85.723 168.465 91.047 168.465H101.031V180.08H98.405C92.172 180.08 85.564 180.239 79.331 180.412C74.05 180.556 74.945 196.946 74.959 199.414C75.017 207.869 86.198 205.012 91.522 205.012H101.03C101.03 208.893 101.044 212.76 101.044 216.627H98.88C92.662 216.627 86.054 216.786 79.806 216.959C74.54 217.118 75.434 233.493 75.449 235.961C75.492 244.416 86.688 241.573 92.012 241.573H100.914C100.669 245.685 100.423 251.124 102.198 253.043C104.16 252.855 106.137 252.697 108.099 252.552C114.39 252.09 120.637 251.686 126.697 251.138C129.034 250.922 131.372 250.72 133.709 250.503C133.824 249.753 133.882 249.003 133.882 248.31V241.572H277.383C312.039 241.572 346.695 241.572 381.351 241.558C381.337 243.52 381.438 245.454 381.87 246.896C392.633 247.242 403.382 247.632 414.131 248.036C414.261 247.545 414.304 247.012 414.275 246.478C414.419 245.67 414.477 244.833 414.477 244.083V241.558H434.142C435.57 241.558 437.287 241.168 438.514 240.433C439.062 240.346 439.639 239.971 440.26 239.192C441.183 238.052 441.256 236.451 441.299 234.979C441.414 230.434 441.515 225.889 441.631 221.33C441.645 221.186 441.645 221.041 441.645 220.883C441.979 220.431 442.152 219.883 442.065 219.234ZM133.884 168.462H381.627V180.091C364.631 180.091 347.635 180.091 330.639 180.077H133.884V168.462ZM225.314 216.637C194.842 216.637 164.356 216.637 133.884 216.623V205.008H381.641C381.641 208.889 381.655 212.756 381.655 216.637H225.314Z" fill="#3F2C1C"/>
<path d="M827.581 283.02C824.263 253.414 815.144 219.926 788.178 207.273C765.872 196.813 738.993 204.589 715.375 197.563C681.801 187.579 664.372 151.927 646.337 121.888C640.898 112.813 634.896 103.795 626.499 97.346C613.745 87.549 596.994 84.837 580.95 83.639C551.878 81.446 522.517 83.163 493.892 88.703C486.967 90.059 479.724 91.805 474.573 96.624C465.974 104.689 466.133 118.151 466.926 129.924C469.61 169.933 472.308 209.927 474.991 249.936C475.078 251.249 475.078 252.562 474.847 253.86C473.289 263.152 465.108 263.108 458.399 262.546C445.601 261.464 432.804 260.526 419.992 259.704C399.562 258.391 379.103 257.396 358.63 256.732C347.362 256.371 336.079 256.097 324.782 255.938C310.542 255.722 296.287 255.649 282.046 255.75C262.208 255.88 242.369 256.313 222.531 257.049C216.255 257.28 209.979 257.54 203.703 257.843C202.996 257.872 202.275 257.915 201.568 257.944C200.457 258.002 199.36 258.045 198.25 258.117C170.289 259.473 142.356 261.464 114.467 264.047C111.048 264.364 107.614 264.696 104.18 265.028C95.581 265.865 84.601 265.259 76.449 268.159C70.808 270.164 69.971 274.464 69.336 279.961C67.1 299.554 66.191 319.407 64.632 339.072C64.502 340.659 64.372 342.261 64.243 343.862C64.027 346.618 63.68 349.648 61.632 351.523C59.727 353.254 56.943 353.442 54.375 353.557C43.064 354.033 31.738 354.509 20.426 354.985C14.972 355.216 10.687 359.746 10.745 365.2L10.875 376.584C10.947 382.413 15.91 386.972 21.71 386.554L45.011 384.866C48.575 384.621 52.629 384.52 55.197 387.016C57.592 389.325 57.823 393.018 57.895 396.336C58.126 407.287 58.357 418.223 58.602 429.174L116.097 431.872C126.514 394.518 162.959 366.037 201.727 364.955C240.495 363.873 278.469 390.276 290.95 426.995C374.82 429.404 458.747 429.679 542.631 427.817C554.246 390.954 591.412 363.829 630.007 363.67C630.786 363.67 631.565 363.684 632.344 363.699C671.776 364.666 708.827 393.983 718.825 432.131C747.003 431.222 775.181 430.313 803.358 429.419C808.321 429.246 813.587 428.986 817.613 426.101C822.923 422.278 824.423 415.136 825.375 408.658C831.505 367.106 832.241 324.76 827.581 283.02ZM84.122 286.407C82.45 301.771 82.082 317.277 83.024 332.704C83.145 334.68 82.607 337.423 80.628 337.366C78.92 337.317 78.272 335.14 78.118 333.438C76.653 317.236 76.769 300.891 78.462 284.711C78.503 284.319 78.612 283.909 78.774 283.507C79.69 281.233 82.296 279.236 83.844 282.524C84.404 283.715 84.264 285.1 84.122 286.407ZM91.226 285.671C89.434 301.277 89.052 317.045 90.088 332.72C90.196 334.348 89.94 336.506 88.338 336.815C86.469 337.176 85.568 334.618 85.465 332.717C84.578 316.269 85.076 299.746 86.951 283.381C87.004 282.921 87.125 282.445 87.296 281.999C88.07 279.982 89.872 278.563 91.081 281.858C91.522 283.063 91.372 284.395 91.226 285.671ZM276.97 377.08C274.891 377.559 273.015 375.847 271.526 374.319C253.366 355.691 228.545 343.696 202.665 341.042C187.674 339.505 172.236 341.067 158.26 346.703C144.284 352.339 131.848 362.185 124.135 375.131C123.016 377.009 120.609 379.194 119.096 377.616C118.11 376.587 118.708 374.896 119.39 373.645C132.001 350.505 154.63 338.089 179.363 334.33C203.035 330.731 228.635 335.062 249.223 345.508C259.828 350.889 269.703 358.024 277.068 367.361C278.273 368.888 279.446 370.564 279.677 372.495C279.909 374.425 278.866 376.643 276.97 377.08ZM586.476 106.276C595.078 109.757 603.127 114.537 610.621 119.985C640.178 141.474 661.224 172.412 681.659 202.707C682.563 204.048 683.287 206.23 681.847 206.966C680.599 207.604 679.289 206.263 678.52 205.091C668.198 189.362 657.067 174.165 645.185 159.579C634.612 146.6 623.357 134.024 610.087 123.818C602.768 118.189 594.827 113.309 586.342 109.642C581.964 107.75 577.445 106.175 572.818 105.01C569.383 104.145 564.44 104.155 561.694 102.309C564.44 97.262 582.338 104.601 586.476 106.276ZM310.173 395.418C312.952 393.794 320.73 394.962 324.008 394.846C333.504 394.51 343.003 394.274 352.504 394.137C355.477 394.094 358.45 394.061 361.423 394.037C377.453 393.91 393.485 394.065 409.51 394.502C447.108 395.527 484.663 398.102 522.048 402.224C523.239 402.355 524.704 402.722 524.954 403.894C525.331 405.666 522.701 406.307 520.9 406.114C451.39 398.665 381.328 396.381 311.48 399.288C307.258 399.463 307.448 397.01 310.173 395.418ZM531.343 419.33C531.052 420.255 529.799 420.353 528.832 420.27C473.428 415.533 417.883 407.596 362.453 407.318C352.21 407.894 341.956 408.363 331.787 408.007C324.953 408.368 318.121 408.875 311.292 409.55C309.947 409.683 308.482 409.795 307.352 409.054C305.129 407.597 306.028 406.754 307.814 406.26C308.629 406.035 309.629 405.884 310.601 405.779C309.249 405.523 307.899 405.25 306.553 404.943C305.388 404.677 304.563 403.995 304.317 402.868C304.449 402.795 304.592 402.73 304.743 402.674C308.225 401.378 316.505 404.371 320.319 404.768C321.172 404.857 322.027 404.916 322.882 404.987C324.768 404.88 326.654 404.774 328.54 404.685C338.019 404.237 347.509 404.012 356.999 403.977C360.047 403.966 363.094 404.007 366.141 404.034C368.377 403.88 370.613 403.729 372.85 403.593C420.762 400.678 468.806 404.223 516.676 407.767C517.726 407.845 519.018 408.109 519.299 409.125C519.732 410.692 517.403 411.401 515.78 411.31C483.012 409.478 450.229 406.697 417.443 406.04C454.675 408.515 491.749 412.868 528.796 417.241C530.05 417.39 531.721 418.126 531.343 419.33ZM506.154 256.198H504.351C503.153 256.198 501.783 256.126 500.975 255.231C500.282 254.452 500.239 253.312 500.225 252.273C499.98 226.288 499.835 200.303 499.807 174.304C499.807 161.117 499.821 147.93 499.865 134.728C499.879 129.419 498.163 120.531 499.937 115.596C501.639 110.878 507.223 109.479 511.898 108.613C537.551 103.823 564.474 110.301 587.198 123.128C609.922 135.969 628.75 154.797 644.838 175.343C658.155 192.382 669.986 211.211 674.747 232.305C676.017 237.874 676.637 244.136 673.506 248.912C669.163 255.534 659.886 256.213 651.965 256.213C603.356 256.213 554.762 256.198 506.154 256.198ZM705.853 371.351C705.516 372.598 703.903 373.107 702.669 372.727C701.435 372.347 700.499 371.362 699.597 370.438C680.37 350.764 650.568 343.94 623.353 347.949C596.138 351.959 571.194 365.587 549.043 381.898C547.81 382.806 546.281 383.771 544.855 383.214C540.793 381.629 550.454 376 551.312 375.383C556.032 371.989 560.835 368.707 565.747 365.597C575.242 359.587 585.156 354.201 595.567 349.948C608.532 344.651 622.38 341.138 636.326 340.418C642.109 340.119 647.909 340.301 653.67 341.036C673.324 343.541 692.456 352.881 704.767 368.405C705.443 369.257 706.136 370.301 705.853 371.351ZM796.123 390.934C795.98 392.076 795.688 393.423 794.62 393.853C792.667 394.638 791.49 391.668 791.499 389.563C791.596 366.258 794.607 343.058 795.314 319.763C795.747 305.484 795.292 291.097 792.796 277.005C791.577 270.122 789.576 263.596 787.626 256.908C787.167 255.334 784.792 251.061 787.407 250.003C787.476 249.975 787.549 249.949 787.625 249.926C789.77 249.269 790.927 251.796 791.5 253.366C799.45 275.131 802.132 298.539 802.002 321.71C801.87 344.882 798.994 367.94 796.123 390.934ZM809.742 390.825C809.505 392.656 808.693 395.004 806.849 394.917C804.923 394.826 804.414 392.23 804.492 390.304C805.422 367.467 808.736 344.761 809.203 321.91C809.468 308.923 808.779 295.846 806.252 283.082C804.998 276.75 803.298 270.499 801.033 264.451C800.618 263.343 796.524 254.257 798.688 253.451C799.161 253.275 799.932 253.494 801.106 254.278C802.263 255.051 802.883 256.392 803.427 257.672C812.214 278.382 815.367 301.132 815.449 323.628C815.531 346.126 812.634 368.515 809.742 390.825Z" fill="#911F1C"/>
</svg>
